<svg width="455" height="510" viewBox="0 0 455 510" fill="none" xmlns="http://www.w3.org/2000/svg">
<circle cx="117.5" cy="7.5" r="7.5" fill="#0A467C"/>
<circle cx="117.5" cy="392.5" r="7.5" fill="#0A467C"/>
<circle cx="117.5" cy="62.5" r="7.5" fill="#0A467C"/>
<circle cx="117.5" cy="447.5" r="7.5" fill="#0A467C"/>
<circle cx="117.5" cy="117.5" r="7.5" fill="#0A467C"/>
<circle cx="117.5" cy="502.5" r="7.5" fill="#0A467C"/>
<circle cx="117.5" cy="172.5" r="7.5" fill="#0A467C"/>
<circle cx="117.5" cy="282.5" r="7.5" fill="#0A467C"/>
<circle cx="62.5" cy="172.5" r="7.5" fill="#0A467C"/>
<circle cx="62.5" cy="282.5" r="7.5" fill="#0A467C"/>
<circle cx="7.5" cy="172.5" r="7.5" fill="#0A467C"/>
<circle cx="7.5" cy="282.5" r="7.5" fill="#0A467C"/>
<circle cx="117.5" cy="227.5" r="7.5" fill="#0A467C"/>
<circle cx="117.5" cy="337.5" r="7.5" fill="#0A467C"/>
<circle cx="62.5" cy="227.5" r="7.5" fill="#0A467C"/>
<circle cx="62.5" cy="337.5" r="7.5" fill="#0A467C"/>
<circle cx="7.5" cy="227.5" r="7.5" fill="#0A467C"/>
<circle cx="7.5" cy="337.5" r="7.5" fill="#0A467C"/>
<circle cx="172.5" cy="7.5" r="7.5" fill="#0A467C"/>
<circle cx="172.5" cy="392.5" r="7.5" fill="#0A467C"/>
<circle cx="172.5" cy="62.5" r="7.5" fill="#0A467C"/>
<circle cx="172.5" cy="447.5" r="7.5" fill="#0A467C"/>
<circle cx="172.5" cy="117.5" r="7.5" fill="#0A467C"/>
<circle cx="172.5" cy="502.5" r="7.5" fill="#0A467C"/>
<circle cx="172.5" cy="172.5" r="7.5" fill="#0A467C"/>
<circle cx="172.5" cy="282.5" r="7.5" fill="#0A467C"/>
<circle cx="172.5" cy="227.5" r="7.5" fill="#0A467C"/>
<circle cx="172.5" cy="337.5" r="7.5" fill="#0A467C"/>
<circle cx="227.5" cy="7.5" r="7.5" fill="#0A467C"/>
<circle cx="227.5" cy="392.5" r="7.5" fill="#0A467C"/>
<circle cx="227.5" cy="62.5" r="7.5" fill="#0A467C"/>
<circle cx="227.5" cy="447.5" r="7.5" fill="#0A467C"/>
<circle cx="227.5" cy="117.5" r="7.5" fill="#0A467C"/>
<circle cx="227.5" cy="502.5" r="7.5" fill="#0A467C"/>
<circle cx="227.5" cy="172.5" r="7.5" fill="#0A467C"/>
<circle cx="227.5" cy="282.5" r="7.5" fill="#0A467C"/>
<circle cx="227.5" cy="227.5" r="7.5" fill="#0A467C"/>
<circle cx="227.5" cy="337.5" r="7.5" fill="#0A467C"/>
<circle cx="282.5" cy="7.5" r="7.5" fill="#0A467C"/>
<circle cx="282.5" cy="392.5" r="7.5" fill="#0A467C"/>
<circle cx="282.5" cy="62.5" r="7.5" fill="#0A467C"/>
<circle cx="282.5" cy="447.5" r="7.5" fill="#0A467C"/>
<circle cx="282.5" cy="117.5" r="7.5" fill="#0A467C"/>
<circle cx="282.5" cy="502.5" r="7.5" fill="#0A467C"/>
<circle cx="282.5" cy="172.5" r="7.5" fill="#0A467C"/>
<circle cx="282.5" cy="282.5" r="7.5" fill="#0A467C"/>
<circle cx="392.5" cy="172.5" r="7.5" fill="#0A467C"/>
<circle cx="392.5" cy="282.5" r="7.5" fill="#0A467C"/>
<circle cx="282.5" cy="227.5" r="7.5" fill="#0A467C"/>
<circle cx="282.5" cy="337.5" r="7.5" fill="#0A467C"/>
<circle cx="392.5" cy="227.5" r="7.5" fill="#0A467C"/>
<circle cx="392.5" cy="337.5" r="7.5" fill="#0A467C"/>
<circle cx="337.5" cy="7.5" r="7.5" fill="#0A467C"/>
<circle cx="337.5" cy="392.5" r="7.5" fill="#0A467C"/>
<circle cx="337.5" cy="62.5" r="7.5" fill="#0A467C"/>
<circle cx="337.5" cy="447.5" r="7.5" fill="#0A467C"/>
<circle cx="337.5" cy="117.5" r="7.5" fill="#0A467C"/>
<circle cx="337.5" cy="502.5" r="7.5" fill="#0A467C"/>
<circle cx="337.5" cy="172.5" r="7.5" fill="#0A467C"/>
<circle cx="337.5" cy="282.5" r="7.5" fill="#0A467C"/>
<circle cx="447.5" cy="172.5" r="7.5" fill="#0A467C"/>
<circle cx="447.5" cy="282.5" r="7.5" fill="#0A467C"/>
<circle cx="337.5" cy="227.5" r="7.5" fill="#0A467C"/>
<circle cx="337.5" cy="337.5" r="7.5" fill="#0A467C"/>
<circle cx="447.5" cy="227.5" r="7.5" fill="#0A467C"/>
<circle cx="447.5" cy="337.5" r="7.5" fill="#0A467C"/>
</svg>
