<svg width="220" height="222" viewBox="0 0 220 222" fill="none" xmlns="http://www.w3.org/2000/svg">
<circle cx="43.1333" cy="78.4888" r="8" transform="rotate(45 43.1333 78.4888)" fill="#D0D0D0"/>
<circle cx="11.3135" cy="113.137" r="8" transform="rotate(45 11.3135 113.137)" fill="#D0D0D0"/>
<circle cx="76.3677" cy="45.2546" r="8" transform="rotate(45 76.3677 45.2546)" fill="#D0D0D0"/>
<circle cx="110.309" cy="11.3137" r="8" transform="rotate(45 110.309 11.3137)" fill="#D0D0D0"/>
<circle cx="43.1333" cy="144.957" r="8" transform="rotate(45 43.1333 144.957)" fill="#D0D0D0"/>
<circle cx="76.3677" cy="111.723" r="8" transform="rotate(45 76.3677 111.723)" fill="#D0D0D0"/>
<circle cx="109.602" cy="78.4888" r="8" transform="rotate(45 109.602 78.4888)" fill="#D0D0D0"/>
<circle cx="143.542" cy="44.5476" r="8" transform="rotate(45 143.542 44.5476)" fill="#D0D0D0"/>
<circle cx="76.3677" cy="178.191" r="8" transform="rotate(45 76.3677 178.191)" fill="#D0D0D0"/>
<circle cx="108.188" cy="210.011" r="8" transform="rotate(45 108.188 210.011)" fill="#D0D0D0"/>
<circle cx="109.602" cy="144.957" r="8" transform="rotate(45 109.602 144.957)" fill="#D0D0D0"/>
<circle cx="141.421" cy="176.777" r="8" transform="rotate(45 141.421 176.777)" fill="#D0D0D0"/>
<circle cx="142.835" cy="111.723" r="8" transform="rotate(45 142.835 111.723)" fill="#D0D0D0"/>
<circle cx="176.777" cy="77.7817" r="8" transform="rotate(45 176.777 77.7817)" fill="#D0D0D0"/>
<circle cx="174.655" cy="143.542" r="8" transform="rotate(45 174.655 143.542)" fill="#D0D0D0"/>
<circle cx="208.596" cy="109.602" r="8" transform="rotate(45 208.596 109.602)" fill="#D0D0D0"/>
</svg>
