<svg width="66" height="60" viewBox="0 0 66 60" fill="none" xmlns="http://www.w3.org/2000/svg">
<path d="M55.9091 24.5455C56.6618 24.5455 57.2728 23.9345 57.2728 23.1818V6.81814C57.2728 3.06 54.2154 0 50.4546 0H6.81814C3.05732 0 0 3.06 0 6.81814V53.1819C0 56.94 3.05732 60 6.81814 60H50.4545C54.2154 60 57.2726 56.94 57.2726 53.1819V45C57.2726 44.2473 56.6617 43.6364 55.909 43.6364C55.1562 43.6364 54.5453 44.2473 54.5453 45V53.1819C54.5453 55.4374 52.7099 57.2728 50.4544 57.2728H6.81814C4.56265 57.2728 2.72723 55.4374 2.72723 53.1819V13.6364H54.5454V23.1819C54.5455 23.9345 55.1564 24.5455 55.9091 24.5455ZM2.72723 10.9091V6.81814C2.72723 4.56265 4.56265 2.72723 6.81814 2.72723H50.4545C52.71 2.72723 54.5454 4.56265 54.5454 6.81814V10.9091H2.72723Z" fill="black"/>
<path d="M6.81876 8.18183C7.5719 8.18183 8.18244 7.57129 8.18244 6.81815C8.18244 6.06501 7.5719 5.45447 6.81876 5.45447C6.06562 5.45447 5.45508 6.06501 5.45508 6.81815C5.45508 7.57129 6.06562 8.18183 6.81876 8.18183Z" fill="black"/>
<path d="M12.2729 8.18183C13.026 8.18183 13.6365 7.57129 13.6365 6.81815C13.6365 6.06501 13.026 5.45447 12.2729 5.45447C11.5197 5.45447 10.9092 6.06501 10.9092 6.81815C10.9092 7.57129 11.5197 8.18183 12.2729 8.18183Z" fill="black"/>
<path d="M17.7279 8.18183C18.4811 8.18183 19.0916 7.57129 19.0916 6.81815C19.0916 6.06501 18.4811 5.45447 17.7279 5.45447C16.9748 5.45447 16.3643 6.06501 16.3643 6.81815C16.3643 7.57129 16.9748 8.18183 17.7279 8.18183Z" fill="black"/>
<path d="M60.4256 32.7791L60.022 32.7109C57.6302 32.3209 57.2729 31.6991 57.2729 31.3636C57.2729 30.8209 58.3611 29.9999 60.003 29.9999C61.6175 29.9999 62.6811 30.7663 62.733 31.3172C62.8067 32.0699 63.5021 32.6482 64.2221 32.5445C64.9693 32.4735 65.5203 31.8081 65.4494 31.0581C65.2422 28.8981 62.9022 27.2699 60.003 27.2699C56.943 27.2699 54.5457 29.0672 54.5457 31.3608C54.5457 33.4963 56.2393 34.8544 59.5857 35.3999L59.8039 34.0554L59.9839 35.4682C62.2503 35.8419 62.7275 36.4091 62.7275 36.8182C62.7275 37.3609 61.6393 38.1819 59.9975 38.1819C58.383 38.1819 57.3193 37.4128 57.2674 36.8619C57.1938 36.1119 56.5256 35.5555 55.7783 35.6347C55.0311 35.7056 54.4801 36.371 54.5511 37.1211C54.7583 39.2811 57.0983 40.9093 59.9975 40.9093C63.0575 40.9093 65.4548 39.1119 65.4548 36.8183C65.4548 34.6854 63.7638 33.3273 60.4256 32.7791Z" fill="black"/>
<path d="M46.787 32.7791L46.3834 32.7109C43.9916 32.3209 43.6343 31.6991 43.6343 31.3636C43.6343 30.8209 44.7224 29.9999 46.3643 29.9999C47.9788 29.9999 49.0425 30.769 49.0944 31.3172C49.168 32.0699 49.8553 32.6482 50.5834 32.5445C51.3307 32.4735 51.8817 31.8081 51.8107 31.0581C51.6035 28.8981 49.2635 27.2699 46.3643 27.2699C43.3043 27.2699 40.907 29.0672 40.907 31.3608C40.907 33.4963 42.6007 34.8544 45.947 35.3999L46.1653 34.0554L46.3479 35.4682C48.6116 35.8419 49.0889 36.4091 49.0889 36.8182C49.0889 37.3609 48.0007 38.1819 46.3588 38.1819C44.7443 38.1819 43.6807 37.4128 43.6288 36.8619C43.5551 36.1119 42.8734 35.5555 42.1397 35.6347C41.3924 35.7056 40.8415 36.371 40.9124 37.1211C41.1196 39.2811 43.4596 40.9093 46.3588 40.9093C49.4188 40.9093 51.8161 39.1119 51.8161 36.8183C51.8161 34.6854 50.1251 33.3273 46.787 32.7791Z" fill="black"/>
<path d="M36.8188 35.4545C36.0661 35.4545 35.4551 36.0655 35.4551 36.8182C35.4551 37.5709 34.8415 38.1819 34.0915 38.1819H31.3642C30.6142 38.1819 30.0005 37.5709 30.0005 36.8182V31.3636C30.0005 30.6109 30.6142 29.9999 31.3642 29.9999H34.0915C34.8415 29.9999 35.4551 30.6109 35.4551 31.3636C35.4551 32.1163 36.0661 32.7273 36.8188 32.7273C37.5715 32.7273 38.1825 32.1163 38.1825 31.3636C38.1825 29.1081 36.3471 27.2727 34.0916 27.2727H31.3643C29.1089 27.2727 27.2734 29.1081 27.2734 31.3636V36.8182C27.2734 39.0737 29.1089 40.9091 31.3643 40.9091H34.0916C36.3471 40.9091 38.1825 39.0737 38.1825 36.8182C38.1825 36.0655 37.5715 35.4545 36.8188 35.4545Z" fill="black"/>
</svg>
