<svg width="60" height="60" viewBox="0 0 60 60" fill="none" xmlns="http://www.w3.org/2000/svg">
<path d="M18.5225 24.78L23.2573 17.6765C23.6565 17.0765 23.4947 16.2678 22.8948 15.8687C22.2921 15.4695 21.4835 15.6313 21.0869 16.2312L15.8695 24.0573C15.5774 24.4956 15.5774 25.0669 15.8695 25.5052L21.0869 33.3313C21.3399 33.7095 21.7521 33.913 22.1748 33.913C22.4252 33.913 22.6756 33.8425 22.8948 33.6913C23.4948 33.2921 23.6565 32.4835 23.2573 31.8834L18.5225 24.78Z" fill="black"/>
<path d="M32.9225 13.0827C32.2182 12.8974 31.5138 13.3305 31.3416 14.0322L26.1242 34.9018C25.9495 35.6009 26.3746 36.308 27.0737 36.4827C27.1807 36.5088 27.2876 36.5218 27.392 36.5218C27.979 36.5218 28.5086 36.128 28.6546 35.5332L33.872 14.6635C34.0468 13.9643 33.6216 13.2574 32.9225 13.0827Z" fill="black"/>
<path d="M44.1282 24.0599L38.9108 16.2338C38.5117 15.6338 37.703 15.4721 37.103 15.8713C36.5029 16.2704 36.3413 17.0791 36.7404 17.6791L41.4752 24.7826L36.7404 31.8861C36.3413 32.4862 36.5031 33.2948 37.103 33.694C37.3274 33.8427 37.5778 33.9131 37.8255 33.9131C38.2456 33.9131 38.6604 33.7096 38.9108 33.334L44.1282 25.5079C44.4204 25.0695 44.4204 24.4982 44.1282 24.0599Z" fill="black"/>
<path d="M53.4783 0H6.52171C2.92696 0 0 2.92696 0 6.52171V43.0435C0 46.6383 2.92696 49.5652 6.52171 49.5652H26.0869V52.1739H16.9565C13.3617 52.1739 10.4348 55.1009 10.4348 58.6956C10.4348 59.4156 11.0191 60 11.7391 60H48.261C48.981 60 49.5654 59.4156 49.5654 58.6956C49.5654 55.1009 46.6384 52.1739 43.0437 52.1739H33.9132V49.5652H53.4784C57.0732 49.5652 60.0001 46.6383 60.0001 43.0435V6.52171C60.0001 2.92696 57.0732 0 53.4783 0ZM43.041 54.7827C44.7418 54.7827 46.1923 55.8731 46.7323 57.3913H13.2652C13.8052 55.8731 15.2556 54.7827 16.9539 54.7827H43.041ZM28.6957 52.174V49.5654H31.3044V52.174H28.6957V52.174ZM57.3913 43.0435C57.3913 45.201 55.6357 46.9566 53.4783 46.9566H6.52171C4.36427 46.9566 2.60866 45.201 2.60866 43.0435V41.7391H57.3913V43.0435ZM57.3913 39.1305H2.60866V6.52171C2.60866 4.36427 4.36427 2.60866 6.52171 2.60866H53.4783C55.6357 2.60866 57.3913 4.36427 57.3913 6.52171V39.1305Z" fill="black"/>
<path d="M53.7393 10.4347C51.9236 10.4347 50.9506 10.2391 50.4889 9.77476C50.0246 9.31046 49.8262 8.33733 49.8262 6.52168C49.8262 5.80167 49.2418 5.21729 48.5218 5.21729C47.8018 5.21729 47.2174 5.80167 47.2174 6.52168C47.2174 8.33733 47.0218 9.31033 46.5575 9.77207C46.0932 10.2364 45.12 10.4347 43.3044 10.4347C42.5844 10.4347 42 11.0191 42 11.7391C42 12.4591 42.5844 13.0435 43.3044 13.0435C45.12 13.0435 46.093 13.2392 46.5548 13.7035C47.0191 14.1678 47.2174 15.1409 47.2174 16.9566C47.2174 17.6766 47.8018 18.2609 48.5218 18.2609C49.2418 18.2609 49.8262 17.6766 49.8262 16.9566C49.8262 15.1409 50.0219 14.1652 50.4862 13.7035C50.9505 13.2417 51.9236 13.0435 53.7393 13.0435C54.4593 13.0435 55.0437 12.4591 55.0437 11.7391C55.0437 11.0191 54.4593 10.4347 53.7393 10.4347Z" fill="black"/>
<path d="M17.2168 15.913C15.4012 15.913 14.4281 15.7173 13.9664 15.253C13.5021 14.7887 13.3038 13.8156 13.3038 11.9999C13.3038 11.2799 12.7194 10.6956 11.9994 10.6956C11.2794 10.6956 10.695 11.2799 10.695 11.9999C10.695 13.8156 10.4993 14.7886 10.035 15.2503C9.57071 15.7147 8.59758 15.913 6.78193 15.913C6.06193 15.913 5.47754 16.4974 5.47754 17.2174C5.47754 17.9374 6.06193 18.5218 6.78193 18.5218C8.59758 18.5218 9.57328 18.7174 10.035 19.1817C10.4968 19.646 10.695 20.6192 10.695 22.4348C10.695 23.1548 11.2794 23.7392 11.9994 23.7392C12.7194 23.7392 13.3038 23.1548 13.3038 22.4348C13.3038 20.6166 13.4994 19.6435 13.9637 19.1817C14.428 18.72 15.4012 18.5218 17.2168 18.5218C17.9368 18.5218 18.5212 17.9374 18.5212 17.2174C18.5212 16.4974 17.9368 15.913 17.2168 15.913Z" fill="black"/>
</svg>
