<svg width="42" height="41" viewBox="0 0 42 41" fill="none" xmlns="http://www.w3.org/2000/svg">
<path d="M14.3789 32.4032C14.3789 32.5645 14.1934 32.6935 13.9596 32.6935C13.6934 32.7176 13.5081 32.5888 13.5081 32.4032C13.5081 32.242 13.6934 32.1128 13.9274 32.1128C14.1694 32.0887 14.3789 32.2176 14.3789 32.4032Z" fill="black"/>
<path d="M11.8709 32.0403C11.8144 32.2017 11.9757 32.3871 12.2176 32.4354C12.4274 32.5161 12.6694 32.4354 12.7176 32.2743C12.7662 32.1129 12.6129 31.9275 12.3709 31.8548C12.1612 31.7985 11.9275 31.8791 11.8709 32.0403Z" fill="black"/>
<path d="M15.4354 31.9031C15.2016 31.9596 15.0404 32.1128 15.0644 32.2983C15.0886 32.4595 15.2984 32.5646 15.5403 32.5081C15.7742 32.4516 15.9354 32.2983 15.9112 32.137C15.8871 31.9837 15.6693 31.879 15.4354 31.9031Z" fill="black"/>
<path d="M20.7418 1C9.55635 1 1 9.49183 1 20.6775C1 29.621 6.62896 37.2742 14.6693 39.9678C15.7016 40.1533 16.0644 39.5162 16.0644 38.9919C16.0644 38.4919 16.0403 35.7337 16.0403 34.0404C16.0403 34.0404 10.3951 35.2501 9.20965 31.637C9.20965 31.637 6.58478 28.4096 5.26217 27.8047C5.26217 27.8047 3.41539 26.0414 5.3913 26.0656C5.3913 26.0656 9.10496 26.2676 10.2097 28.1869C11.9758 31.2998 14.9355 30.4047 16.0887 29.8723C16.2742 28.582 16.7984 27.4675 17.379 26.9352C12.871 26.4352 8.32261 26.867 8.32261 19.1091C8.32261 16.8914 8.93548 15.6389 10.2259 14.2195C10.0163 13.6953 9.33078 11.5341 10.4357 8.74365C12.1211 8.21948 16 10.9211 16 10.9211C17.613 10.4695 19.3469 10.2357 21.0645 10.2357C22.7824 10.2357 24.5162 10.4695 26.129 10.9211C26.129 10.9211 30.0083 8.21139 31.6936 8.74365C32.7983 11.542 32.113 13.6953 31.9033 14.2195C33.1937 15.647 33.9839 16.8994 33.9839 19.1091C33.9839 26.8914 29.2339 27.7645 24.726 28.2725C25.4678 28.9096 26.0968 30.3389 26.0968 32.234C26.0968 34.9517 26.0728 38.3147 26.0728 38.9758C26.0728 39.5 26.4437 40.1371 27.4678 39.9517C35.5323 37.2743 41 29.6211 41 20.6777C40.9998 9.49183 31.9273 1 20.7418 1Z" stroke="black" stroke-miterlimit="10" stroke-linecap="round" stroke-linejoin="round"/>
<path d="M8.83871 28.8144C8.73384 28.8951 8.7581 29.0806 8.89497 29.2336C9.02401 29.3627 9.20958 29.4191 9.31436 29.3144C9.41923 29.2336 9.39497 29.0483 9.25793 28.8951C9.12906 28.766 8.94358 28.7096 8.83871 28.8144Z" fill="black"/>
<path d="M7.96763 28.1612C7.91128 28.266 7.9918 28.3949 8.15311 28.4756C8.28215 28.5564 8.44345 28.5321 8.49989 28.4192C8.55624 28.3144 8.47572 28.1855 8.31441 28.1047C8.15319 28.0562 8.02406 28.0805 7.96763 28.1612Z" fill="black"/>
<path d="M10.5805 31.032C10.4515 31.1369 10.4999 31.3789 10.6853 31.532C10.8708 31.7176 11.1046 31.7418 11.2095 31.6126C11.3142 31.5079 11.2659 31.2659 11.1046 31.1128C10.9272 30.9273 10.6853 30.903 10.5805 31.032Z" fill="black"/>
<path d="M9.66124 29.8468C9.53219 29.9273 9.53219 30.137 9.66124 30.3225C9.79037 30.508 10.0081 30.5886 10.1129 30.508C10.2418 30.4031 10.2418 30.1935 10.1129 30.008C9.99993 29.8226 9.79037 29.7418 9.66124 29.8468Z" fill="black"/>
</svg>
