<svg width="66" height="60" viewBox="0 0 66 60" fill="none" xmlns="http://www.w3.org/2000/svg">
<path d="M55.909 24.5454C56.6617 24.5454 57.2726 23.9345 57.2726 23.1817V6.81813C57.2726 3.06 54.2153 0 50.4545 0H6.81813C3.05731 0 0 3.06 0 6.81826V53.1819C0 56.94 3.05731 60 6.81813 60H50.4544C54.2153 60 57.2725 56.94 57.2725 53.1819V45.0001C57.2725 44.2473 56.6616 43.6364 55.9088 43.6364C55.1561 43.6364 54.5452 44.2473 54.5452 45.0001V53.1819C54.5452 55.4374 52.7098 57.2728 50.4543 57.2728H6.81813C4.56264 57.2728 2.72723 55.4374 2.72723 53.1819V13.6364H54.5453V23.1819C54.5454 23.9346 55.1562 24.5454 55.909 24.5454ZM2.72723 10.9092V6.81826C2.72723 4.56276 4.56264 2.72735 6.81813 2.72735H50.4544C52.7099 2.72735 54.5453 4.56276 54.5453 6.81826V10.9092H2.72723Z" fill="black"/>
<path d="M6.81876 8.18194C7.57189 8.18194 8.18243 7.5714 8.18243 6.81827C8.18243 6.06513 7.57189 5.45459 6.81876 5.45459C6.06562 5.45459 5.45508 6.06513 5.45508 6.81827C5.45508 7.5714 6.06562 8.18194 6.81876 8.18194Z" fill="black"/>
<path d="M12.2729 8.18194C13.026 8.18194 13.6365 7.5714 13.6365 6.81827C13.6365 6.06513 13.026 5.45459 12.2729 5.45459C11.5197 5.45459 10.9092 6.06513 10.9092 6.81827C10.9092 7.5714 11.5197 8.18194 12.2729 8.18194Z" fill="black"/>
<path d="M17.7279 8.18194C18.4811 8.18194 19.0916 7.5714 19.0916 6.81827C19.0916 6.06513 18.4811 5.45459 17.7279 5.45459C16.9748 5.45459 16.3643 6.06513 16.3643 6.81827C16.3643 7.5714 16.9748 8.18194 17.7279 8.18194Z" fill="black"/>
<path d="M28.6364 27.2728C27.8837 27.2728 27.2728 27.8838 27.2728 28.6365V32.7274H21.8182V28.6365C21.8182 27.8838 21.2072 27.2728 20.4545 27.2728C19.7018 27.2728 19.0908 27.8838 19.0908 28.6365V39.5455C19.0908 40.2983 19.7018 40.9092 20.4545 40.9092C21.2072 40.9092 21.8182 40.2983 21.8182 39.5455V35.4546H27.2728V39.5455C27.2728 40.2983 27.8837 40.9092 28.6364 40.9092C29.3892 40.9092 30.0001 40.2983 30.0001 39.5455V28.6365C30.0001 27.8836 29.3892 27.2728 28.6364 27.2728Z" fill="black"/>
<path d="M39.5443 27.2729H34.0898C33.337 27.2729 32.7261 27.8839 32.7261 28.6366C32.7261 29.3894 33.3372 30.0002 34.0899 30.0002H35.4536V39.5457C35.4536 40.2984 36.0645 40.9093 36.8172 40.9093C37.57 40.9093 38.1809 40.2984 38.1809 39.5457V30.0002H39.5446C40.2973 30.0002 40.9083 29.3892 40.9083 28.6365C40.9083 27.8838 40.2971 27.2729 39.5443 27.2729Z" fill="black"/>
<path d="M53.7017 27.3792C53.1944 27.1638 52.608 27.281 52.2153 27.6738L49.0898 30.7992L45.9644 27.6711C45.5743 27.2839 44.9852 27.1665 44.478 27.3765C43.968 27.5866 43.6353 28.0857 43.6353 28.6365V39.5456C43.6353 40.2983 44.2462 40.9093 44.9989 40.9093C45.7517 40.9093 46.3626 40.2983 46.3626 39.5456V31.9283L48.1272 33.6901C48.659 34.2219 49.5236 34.2219 50.0554 33.6901L51.8172 31.9283V39.5456C51.8172 40.2983 52.4281 40.9093 53.1809 40.9093C53.9336 40.9093 54.5445 40.2983 54.5445 39.5484V28.6394C54.5444 28.0882 54.2116 27.5891 53.7017 27.3792Z" fill="black"/>
<path d="M64.0906 38.1819H59.9997V28.6364C59.9997 27.8837 59.3887 27.2727 58.636 27.2727C57.8833 27.2727 57.2725 27.8837 57.2725 28.6364V39.5454C57.2725 40.2981 57.8834 40.9091 58.6361 40.9091H64.0907C64.8434 40.9091 65.4544 40.2981 65.4544 39.5454C65.4544 38.7927 64.8433 38.1819 64.0906 38.1819Z" fill="black"/>
</svg>
