<svg width="63" height="60" viewBox="0 0 63 60" fill="none" xmlns="http://www.w3.org/2000/svg">
<path d="M55.9091 24.5455C56.6618 24.5455 57.2728 23.9345 57.2728 23.1818V6.81814C57.2728 3.06 54.2128 0 50.4546 0H6.81814C3.06 0 0 3.06 0 6.81814V53.1819C0 56.94 3.06 60 6.81814 60H50.4545C54.2126 60 57.2726 56.94 57.2726 53.1819V45C57.2726 44.2473 56.6617 43.6364 55.909 43.6364C55.1562 43.6364 54.5453 44.2473 54.5453 45V53.1819C54.5453 55.4374 52.7099 57.2728 50.4544 57.2728H6.81814C4.56265 57.2728 2.72723 55.4374 2.72723 53.1819V13.6364H54.5454V23.1819C54.5455 23.9345 55.1564 24.5455 55.9091 24.5455ZM2.72723 10.9091V6.81814C2.72723 4.56265 4.56265 2.72723 6.81814 2.72723H50.4545C52.71 2.72723 54.5454 4.56265 54.5454 6.81814V10.9091H2.72723Z" fill="black"/>
<path d="M6.81876 8.18183C7.5719 8.18183 8.18244 7.57129 8.18244 6.81815C8.18244 6.06501 7.5719 5.45447 6.81876 5.45447C6.06562 5.45447 5.45508 6.06501 5.45508 6.81815C5.45508 7.57129 6.06562 8.18183 6.81876 8.18183Z" fill="black"/>
<path d="M12.2729 8.18183C13.026 8.18183 13.6365 7.57129 13.6365 6.81815C13.6365 6.06501 13.026 5.45447 12.2729 5.45447C11.5197 5.45447 10.9092 6.06501 10.9092 6.81815C10.9092 7.57129 11.5197 8.18183 12.2729 8.18183Z" fill="black"/>
<path d="M17.7279 8.18183C18.4811 8.18183 19.0916 7.57129 19.0916 6.81815C19.0916 6.06501 18.4811 5.45447 17.7279 5.45447C16.9748 5.45447 16.3643 6.06501 16.3643 6.81815C16.3643 7.57129 16.9748 8.18183 17.7279 8.18183Z" fill="black"/>
<path d="M57.5712 32.7791L57.1676 32.7109C54.7758 32.3209 54.4185 31.6991 54.4185 31.3636C54.4185 30.8209 55.5067 29.9999 57.1512 30.0027C58.763 30.0027 59.8267 30.7692 59.8812 31.32C59.9522 32.0673 60.6012 32.6346 61.3677 32.5473C62.1177 32.4763 62.6659 31.8109 62.5949 31.0609C62.3877 28.9009 60.0477 27.2727 57.1485 27.2727C54.0885 27.2727 51.6912 29.07 51.6912 31.3636C51.6912 33.4991 53.3876 34.8573 56.7286 35.3999L56.9495 34.0554L57.1322 35.4682C59.3985 35.8419 59.8731 36.4091 59.8731 36.8182C59.8731 37.3609 58.7849 38.1819 57.1403 38.1819C55.5285 38.1819 54.4649 37.4128 54.4103 36.8619C54.3393 36.1119 53.6821 35.5365 52.9239 35.6347C52.1738 35.7056 51.6257 36.371 51.6966 37.1211C51.9038 39.2811 54.2438 40.9092 57.143 40.9092C60.203 40.9092 62.6003 39.1119 62.6003 36.8183C62.6002 34.6854 60.9093 33.3273 57.5712 32.7791Z" fill="black"/>
<path d="M47.5995 27.2727C46.8468 27.2727 46.2358 27.8837 46.2358 28.6364V36.8182C46.2358 37.5709 45.6249 38.1819 44.8722 38.1819C44.1194 38.1819 43.5086 37.5709 43.5086 36.8182C43.5086 36.0655 42.8977 35.4545 42.1449 35.4545C41.3922 35.4545 40.7812 36.0655 40.7812 36.8182C40.7812 39.0737 42.6167 40.9091 44.8722 40.9091C47.1277 40.9091 48.9631 39.0737 48.9631 36.8182V28.6364C48.9632 27.8837 48.3523 27.2727 47.5995 27.2727Z" fill="black"/>
</svg>
