<svg width="40" height="40" viewBox="0 0 40 40" fill="none" xmlns="http://www.w3.org/2000/svg">
<path d="M20.0004 39.9996C31.0283 39.9996 40 31.0279 40 19.9996C40 8.97125 31.0283 0 20.0004 0C8.97212 0 0 8.97168 0 20C0 31.0283 8.97212 39.9996 20.0004 39.9996ZM20.0004 0.869981C30.5485 0.869981 39.13 9.45148 39.13 20C39.13 30.5485 30.5485 39.1296 20.0004 39.1296C9.45191 39.1296 0.869981 30.5481 0.869981 19.9996C0.869981 9.45104 9.45191 0.869981 20.0004 0.869981Z" fill="black"/>
<path d="M14.7102 15.5991H10.7453C10.5052 15.5991 10.3103 15.794 10.3103 16.0341V28.8428C10.3103 29.083 10.5052 29.2778 10.7453 29.2778H14.7102C14.9503 29.2778 15.1452 29.083 15.1452 28.8428V16.0341C15.1452 15.794 14.9503 15.5991 14.7102 15.5991ZM14.2752 28.4079H11.1803V16.4691H14.2752V28.4079Z" fill="black"/>
<path d="M17.2453 29.278H21.048C21.2881 29.278 21.483 29.0831 21.483 28.843V22.1194C21.483 21.0071 21.8266 19.6813 23.4635 19.6813C23.8898 19.6813 25.1874 19.6813 25.1874 22.1194V28.8435C25.1874 29.0836 25.3822 29.2785 25.6223 29.2785H29.5677C29.8078 29.2785 30.0027 29.0836 30.0027 28.8435V20.7331C30.0027 17.2736 28.0979 15.2083 24.9077 15.2083C23.2699 15.2083 22.1568 15.9051 21.483 16.5398V16.0347C21.483 15.7946 21.2881 15.5997 21.048 15.5997H17.2453C17.0052 15.5997 16.8103 15.7946 16.8103 16.0347V28.8435C16.8103 29.0836 17.0052 29.278 17.2453 29.278ZM17.6803 16.4693H20.613V17.759C20.613 17.9583 20.7483 18.1318 20.9414 18.1805C21.1354 18.2306 21.3364 18.141 21.4308 17.9657C21.4408 17.947 22.4791 16.0778 24.9077 16.0778C27.5929 16.0778 29.1327 17.7743 29.1327 20.7326V28.4076H26.0573V22.1194C26.0573 19.2411 24.4322 18.8113 23.4635 18.8113C21.6783 18.8113 20.613 20.048 20.613 22.1194V28.4085H17.6803V16.4693Z" fill="black"/>
<path d="M12.7088 14.7919C14.2413 14.7919 15.4884 13.5365 15.4884 11.9936C15.4884 10.4507 14.2417 9.19531 12.7088 9.19531C11.1759 9.19531 9.9292 10.4507 9.9292 11.9936C9.9292 13.5365 11.1759 14.7919 12.7088 14.7919ZM12.7088 10.0653C13.7615 10.0653 14.6184 10.9301 14.6184 11.9936C14.6184 13.0572 13.7619 13.9219 12.7088 13.9219C11.6557 13.9219 10.7992 13.0567 10.7992 11.9936C10.7992 10.9305 11.6557 10.0653 12.7088 10.0653Z" fill="black"/>
</svg>
