<svg width="40" height="40" viewBox="0 0 40 40" fill="none" xmlns="http://www.w3.org/2000/svg">
<path d="M32.0695 29.1573C31.5074 29.6979 30.7566 30.0464 29.9423 30.0616C23.346 30.1023 16.7492 30.1023 10.1528 30.0616C8.51972 30.0312 7.05183 28.6161 7.02056 26.9293C6.99315 22.674 6.99315 18.4183 7.02056 14.163C7.05092 12.5292 8.46535 11.0622 10.1528 11.0308C16.7492 10.9897 23.346 10.9897 29.9423 11.0308C31.5813 11.0613 33.0433 12.4758 33.0746 14.163C33.0995 18.4185 33.0995 22.6738 33.0746 26.9293C33.063 27.5589 32.8469 28.1625 32.4891 28.6691C32.5039 28.7894 32.4384 28.8825 32.3704 28.9734C32.2945 29.0753 32.1873 29.1415 32.0695 29.1573ZM23.2771 20.8939L22.7673 21.386C21.2525 22.8313 18.6815 22.8927 17.1024 21.3844L16.9911 21.277L8.94068 28.755C9.29276 28.9983 9.71326 29.1469 10.1639 29.1553C16.753 29.1961 23.3421 29.1961 29.9312 29.1553C30.4322 29.146 30.9123 28.9571 31.2983 28.6473L23.2771 20.8939V20.8939ZM8.34799 12.9226C8.0922 13.2805 7.93519 13.7117 7.92658 14.1743C7.8994 18.4221 7.8994 22.6702 7.92658 26.918C7.93451 27.3455 8.0734 27.7567 8.30608 28.1077L16.3386 20.6463L8.34799 12.9226V12.9226ZM31.6549 12.8054L23.9294 20.2641L31.8856 27.9545C32.0584 27.645 32.1615 27.2925 32.1685 26.9182C32.1932 22.6702 32.1932 18.4221 32.1685 14.1741C32.159 13.6709 31.9669 13.1908 31.6549 12.8054V12.8054ZM30.9585 12.2182C30.6494 12.046 30.2994 11.9438 29.9312 11.937C23.3521 11.8962 16.7727 11.9368 10.1936 11.9368C9.76786 11.9395 9.35733 12.0718 9.00525 12.2977C11.9222 15.1198 14.8252 17.9563 17.7603 20.7596C18.9418 21.8593 20.9222 21.8937 22.1398 20.7322L30.9585 12.2182V12.2182Z" fill="black"/>
<circle cx="20" cy="20" r="19.5" stroke="black"/>
</svg>
