<svg width="40" height="40" viewBox="0 0 40 40" fill="none" xmlns="http://www.w3.org/2000/svg">
<g clip-path="url(#clip0_353_185)">
<path d="M32.9828 27.5766C32.9034 26.9758 32.5566 26.4579 32.0315 26.1555L25.8639 22.6045C25.1085 22.1695 24.1502 22.2962 23.5336 22.9127L22.3188 24.1275C21.9955 24.4508 21.4841 24.4794 21.1294 24.194C20.1717 23.4234 19.2287 22.5753 18.3268 21.6732C17.4248 20.7712 16.5767 19.8283 15.806 18.8706C15.5205 18.5158 15.5491 18.0045 15.8725 17.6811L17.0873 16.4663C17.7038 15.8499 17.8305 14.8917 17.3955 14.1361L13.8444 7.96853C13.5421 7.44337 13.0242 7.09662 12.4234 7.01714C11.8226 6.9375 11.2323 7.13787 10.8038 7.56637L8.97332 9.3969C7.69575 10.6745 7.67523 13.0115 8.91555 15.9775C10.1082 18.8294 12.3338 21.9688 15.1824 24.8176C18.0311 27.6662 21.1706 29.8919 24.0225 31.0845C25.4825 31.695 26.7899 32.0001 27.8938 32C29.0324 32 29.9544 31.6754 30.6031 31.0267L32.4336 29.1961C32.8621 28.7676 33.0623 28.1773 32.9828 27.5766V27.5766ZM25.4598 23.3063L31.6274 26.8574C31.9324 27.033 32.1338 27.3339 32.1799 27.6828C32.2187 27.9756 32.1426 28.2639 31.9701 28.4963L23.7735 23.8183L24.1063 23.4854C24.4644 23.1274 25.0211 23.0538 25.4598 23.3063V23.3063ZM12.3172 7.8201C12.6661 7.86626 12.9669 8.06766 13.1425 8.37268L16.6936 14.5403C16.9463 14.9791 16.8726 15.5357 16.5146 15.8936L16.2088 16.1994L11.5051 8.02986C11.6974 7.88748 11.9274 7.81016 12.1671 7.81016C12.2168 7.81016 12.267 7.81345 12.3172 7.8201V7.8201ZM30.0304 30.4539C29.0154 31.4689 26.9395 31.4264 24.335 30.3372C21.578 29.1843 18.5311 27.0206 15.7552 24.2448C12.9793 21.469 10.8157 18.4219 9.66278 15.665C8.57354 13.0605 8.53105 10.9846 9.54604 9.96957L10.9049 8.61063L15.6157 16.7925L15.2998 17.1085C14.6834 17.7249 14.6297 18.7007 15.175 19.3784C15.9638 20.3587 16.8315 21.3235 17.754 22.2459C18.6765 23.1684 19.6413 24.0362 20.6216 24.825C21.2992 25.3702 22.275 25.3166 22.8915 24.7002L23.1797 24.4119L31.3878 29.0965L30.0304 30.4539V30.4539Z" fill="black"/>
</g>
<circle cx="20" cy="20" r="19.5" stroke="black"/>
<defs>
<clipPath id="clip0_353_185">
<rect width="25" height="25" fill="white" transform="translate(8 7)"/>
</clipPath>
</defs>
</svg>
